<svg xmlns="http://www.w3.org/2000/svg">

  <symbol id="icon-logout" viewBox="0 0 16 16">
    <path d="M10.5082 9.99326C10.5078 9.95053 10.5238 9.90933 10.5529 9.87813L11.4108 9.02022L12.2644 8.16667H11.0573H5.99996C5.95576 8.16667 5.91336 8.14911 5.88211 8.11785C5.85085 8.0866 5.83329 8.04421 5.83329 8C5.83329 7.9558 5.85085 7.91341 5.88211 7.88215C5.91336 7.8509 5.95576 7.83334 5.99996 7.83334H11.0573H12.2644L11.4108 6.97978L10.5488 6.11778L10.5489 6.11773L10.5426 6.11169C10.5267 6.09632 10.514 6.07793 10.5053 6.05759C10.4966 6.03726 10.492 6.01539 10.4918 5.99326C10.4916 5.97113 10.4958 5.94918 10.5042 5.9287C10.5126 5.90822 10.5249 5.88961 10.5406 5.87396C10.5562 5.85831 10.5748 5.84593 10.5953 5.83755C10.6158 5.82917 10.6378 5.82496 10.6599 5.82515C10.682 5.82534 10.7039 5.82994 10.7242 5.83868C10.7445 5.84741 10.7629 5.86011 10.7783 5.87603L10.7783 5.87608L10.7844 5.88222L12.7844 7.88217C12.7844 7.88219 12.7844 7.88221 12.7844 7.88222C12.8156 7.91347 12.8331 7.95583 12.8331 8C12.8331 8.04417 12.8156 8.08653 12.7844 8.11778C12.7844 8.1178 12.7844 8.11782 12.7844 8.11784L10.7885 10.1137C10.7573 10.1428 10.7161 10.1588 10.6734 10.1585C10.6297 10.1581 10.5879 10.1406 10.557 10.1097C10.5261 10.0788 10.5085 10.037 10.5082 9.99326ZM3.21544 3.88215C3.2467 3.8509 3.28909 3.83334 3.33329 3.83334C3.3775 3.83334 3.41989 3.8509 3.45114 3.88215C3.4824 3.91341 3.49996 3.9558 3.49996 4V12C3.49996 12.0442 3.4824 12.0866 3.45114 12.1179C3.41989 12.1491 3.3775 12.1667 3.33329 12.1667C3.28909 12.1667 3.2467 12.1491 3.21544 12.1179C3.18419 12.0866 3.16663 12.0442 3.16663 12V4C3.16663 3.9558 3.18419 3.91341 3.21544 3.88215Z" fill="#252C32" stroke="#0E73F6"/>
  </symbol>

  <symbol id="icon-cancel" viewBox="0 0 16 16">
    <path fill-rule="evenodd" clip-rule="evenodd" d="M8.00003 9.414L4.70703 12.707L3.29303 11.293L6.58603 8L3.29303 4.707L4.70703 3.293L8.00003 6.586L11.293 3.293L12.707 4.707L9.41403 8L12.707 11.293L11.293 12.707L8.00003 9.414Z" fill="#4094F7"/>
  </symbol>

  <symbol id="icon-logo" viewBox="0 0 240 42">
    <path fill-rule="evenodd" clip-rule="evenodd" d="M0 32.6458L9.55639 26.0909L29.054 39.4577L29.2464 39.3292L14.1101 18.4436L13.3405 12.9169L26.6168 8.9326L26.5526 8.67555H12.6991L12.3143 6.10502L23.923 2.6348L23.8589 2.37774H0V0H30.6574V41H30.5933H30.5291H30.465H0V32.6458ZM0 25.3198V11.1818L5.77231 12.9169L5.00267 18.4436L0 25.3198ZM0 8.67555V4.11285L6.73437 6.10502L6.34955 8.67555H0Z" fill="#F04E23"></path>
    <path fill-rule="evenodd" clip-rule="evenodd" d="M157.841 29.3685C158.61 29.3685 159.188 28.7259 159.188 28.019V27.5691V17.4798V14.0096V12.9813C159.188 9.18981 162.266 6.16943 165.986 6.16943H170.732H175.158H175.863H180.609H181.956V34.8309H175.158V11.6318H170.732H167.397C166.627 11.6318 166.05 12.2102 166.05 12.9813V14.0096V17.4798V27.5691V28.019C166.05 31.8105 162.972 34.8309 159.252 34.8309H155.852V29.3685H157.841ZM137.06 12.9813V28.019C137.06 28.7901 137.702 29.3685 138.407 29.3685H141.807H146.937H151.684V34.8309H146.937H141.807H137.06C133.276 34.8309 130.262 31.7462 130.262 28.019V12.9813C130.262 9.18981 133.34 6.16943 137.06 6.16943H141.807H146.937H151.684V11.6318H146.937H141.807H138.407C137.638 11.6318 137.06 12.2102 137.06 12.9813ZM102.234 12.9813C102.234 9.18981 105.313 6.16943 109.033 6.16943H125.067V11.6318H110.379C109.61 11.6318 109.033 12.2102 109.033 12.9813V17.0942H124.425V22.5566H109.097V28.019C109.097 28.7901 109.738 29.3685 110.444 29.3685H125.131V34.8309H109.097C105.313 34.8309 102.298 31.7462 102.298 28.019V12.9813H102.234ZM187.857 12.9813C187.857 9.18981 190.935 6.16943 194.655 6.16943H210.689V11.6318H196.002C195.232 11.6318 194.655 12.2102 194.655 12.9813V17.0942H209.984V22.5566H194.655V28.019C194.655 28.7901 195.297 29.3685 196.002 29.3685H210.689V34.8309H194.655C190.871 34.8309 187.857 31.7462 187.857 28.019V12.9813ZM233.137 18.4437C233.137 19.2149 232.496 19.7933 231.79 19.7933H222.94V11.6318H231.79C232.56 11.6318 233.137 12.2744 233.137 12.9813V18.4437ZM216.141 6.16943V11.6318V19.8575V25.3199V34.8951H222.94V25.2556H233.137C236.921 25.2556 239.936 22.171 239.936 18.4437V12.9813C239.936 9.18981 236.857 6.16943 233.137 6.16943H222.94H216.141ZM90.6895 18.4437C90.6895 19.2149 90.0481 19.7933 89.3426 19.7933H80.4917V11.6318H89.3426C90.1122 11.6318 90.6895 12.2744 90.6895 12.9813V18.4437ZM73.6291 6.16943V11.6318V19.8575V25.3199V34.8951H80.4276V25.2556H90.6253C94.4094 25.2556 97.4238 22.171 97.4238 18.4437V12.9813C97.4238 9.18981 94.3453 6.16943 90.6253 6.16943H80.4276H73.6291ZM60.3527 29.3685C61.1224 29.3685 61.6996 28.7259 61.6996 28.019V23.9061C61.6996 23.135 61.0583 22.5566 60.3527 22.5566H51.117V29.3685H60.3527ZM44.3185 34.8309V29.3685V22.5566V17.0942V11.6318V6.16943H51.117H67.1512V11.6318H51.117V17.0942H61.6996C65.4837 17.0942 68.4981 20.1788 68.4981 23.9061V28.019C68.4981 31.8105 65.4196 34.8309 61.6996 34.8309H51.117H44.3185Z" fill="currentColor"></path>
  </symbol>

  <symbol id="icon-plus" viewBox="0 0 24 24">
    <path fill-rule="evenodd" clip-rule="evenodd" d="M12 7C12.2652 7 12.5196 7.10536 12.7071 7.29289C12.8946 7.48043 13 7.73478 13 8V11H16C16.2652 11 16.5196 11.1054 16.7071 11.2929C16.8946 11.4804 17 11.7348 17 12C17 12.2652 16.8946 12.5196 16.7071 12.7071C16.5196 12.8946 16.2652 13 16 13H13V16C13 16.2652 12.8946 16.5196 12.7071 16.7071C12.5196 16.8946 12.2652 17 12 17C11.7348 17 11.4804 16.8946 11.2929 16.7071C11.1054 16.5196 11 16.2652 11 16V13H8C7.73478 13 7.48043 12.8946 7.29289 12.7071C7.10536 12.5196 7 12.2652 7 12C7 11.7348 7.10536 11.4804 7.29289 11.2929C7.48043 11.1054 7.73478 11 8 11H11V8C11 7.73478 11.1054 7.48043 11.2929 7.29289C11.4804 7.10536 11.7348 7 12 7Z" fill="#fff"/>
  </symbol>

  <symbol id="icon-search" viewBox="0 0 24 24">
    <path fill-rule="evenodd" clip-rule="evenodd" d="M10 6.00077C8.93913 6.00077 7.92172 6.42219 7.17157 7.17234C6.42143 7.92248 6 8.9399 6 10.0008C6 11.0616 6.42143 12.079 7.17157 12.8292C7.92172 13.5793 8.93913 14.0008 10 14.0008C11.0609 14.0008 12.0783 13.5793 12.8284 12.8292C13.5786 12.079 14 11.0616 14 10.0008C14 8.9399 13.5786 7.92248 12.8284 7.17234C12.0783 6.42219 11.0609 6.00077 10 6.00077ZM4 10.0008C3.99988 9.05647 4.22264 8.12548 4.65017 7.28351C5.0777 6.44154 5.69792 5.71236 6.4604 5.15529C7.22287 4.59822 8.10606 4.22898 9.03815 4.0776C9.97023 3.92622 10.9249 3.99698 11.8245 4.28412C12.724 4.57126 13.5432 5.06667 14.2152 5.73006C14.8872 6.39346 15.3931 7.2061 15.6919 8.1019C15.9906 8.9977 16.0737 9.95136 15.9343 10.8853C15.795 11.8193 15.4372 12.7072 14.89 13.4768L19.707 18.2938C19.8892 18.4824 19.99 18.735 19.9877 18.9972C19.9854 19.2594 19.8802 19.5102 19.6948 19.6956C19.5094 19.881 19.2586 19.9862 18.9964 19.9884C18.7342 19.9907 18.4816 19.8899 18.293 19.7078L13.477 14.8918C12.5794 15.53 11.5233 15.9089 10.4247 15.9869C9.326 16.0648 8.22707 15.8389 7.2483 15.3337C6.26953 14.8286 5.44869 14.0638 4.87572 13.1231C4.30276 12.1824 3.99979 11.1022 4 10.0008Z" fill="#B0BABF"/>
  </symbol>

  <symbol id="icon-info" viewBox="0 0 16 16">
    <path fill-rule="evenodd" clip-rule="evenodd" d="M16 8C16 10.1217 15.1571 12.1566 13.6569 13.6569C12.1566 15.1571 10.1217 16 8 16C5.87827 16 3.84344 15.1571 2.34315 13.6569C0.842855 12.1566 0 10.1217 0 8C0 5.87827 0.842855 3.84344 2.34315 2.34315C3.84344 0.842855 5.87827 0 8 0C10.1217 0 12.1566 0.842855 13.6569 2.34315C15.1571 3.84344 16 5.87827 16 8ZM9 4C9 4.26522 8.89464 4.51957 8.70711 4.70711C8.51957 4.89464 8.26522 5 8 5C7.73478 5 7.48043 4.89464 7.29289 4.70711C7.10536 4.51957 7 4.26522 7 4C7 3.73478 7.10536 3.48043 7.29289 3.29289C7.48043 3.10536 7.73478 3 8 3C8.26522 3 8.51957 3.10536 8.70711 3.29289C8.89464 3.48043 9 3.73478 9 4ZM7 7C6.73478 7 6.48043 7.10536 6.29289 7.29289C6.10536 7.48043 6 7.73478 6 8C6 8.26522 6.10536 8.51957 6.29289 8.70711C6.48043 8.89464 6.73478 9 7 9V12C7 12.2652 7.10536 12.5196 7.29289 12.7071C7.48043 12.8946 7.73478 13 8 13H9C9.26522 13 9.51957 12.8946 9.70711 12.7071C9.89464 12.5196 10 12.2652 10 12C10 11.7348 9.89464 11.4804 9.70711 11.2929C9.51957 11.1054 9.26522 11 9 11V8C9 7.73478 8.89464 7.48043 8.70711 7.29289C8.51957 7.10536 8.26522 7 8 7H7Z" fill="#84919A"/>
  </symbol>

</svg>